<?xml version="1.0" encoding="utf-8"?>
<!-- Generator: Adobe Illustrator 25.2.0, SVG Export Plug-In . SVG Version: 6.00 Build 0)  -->
<svg version="1.1" id="Layer_1" xmlns="http://www.w3.org/2000/svg" xmlns:xlink="http://www.w3.org/1999/xlink" x="0px" y="0px"
	 viewBox="0 0 864 864" style="enable-background:new 0 0 864 864;" xml:space="preserve">
<style type="text/css">
	.st0{fill:#010101;}
</style>
<g>
	<path class="st0" d="M129.8,434.5c2.2,0.3,4.6,0,6.8,0c177.5,0,355.2,0,532.7,0c17.3,0,34.6-0.1,51.8-0.1c3.2,0,6.6,0.1,6.5-4.6
		c-0.1-4.6-3.6-4.4-6.8-4.4c-10.8-0.1-21.6-0.1-32.4-0.1c-2.2,0-4.3-0.3-7.5-0.4c1.9-2.8,3.5-4.7,4.7-6.8c4.8-7.5,8-15.1,5-24.1
		c-6.1-18.1-27.7-28.2-45.8-20.7c-3.3,1.4-6.8,3.6-9.3,6.2c-5.3,5.3-5.9,13.7-2.4,19.2c3.6,5.7,11.3,8.2,18.5,6.1
		c5.7-1.5,8.6-7.1,6.4-12.6c-0.8-2.2-2.4-4.1-4.1-7.3c2.6-1,5-2.2,7.3-2.4c10.9-0.4,18.8,7.3,18.9,18.1c0.3,11.8-9.5,23.1-21.6,24.3
		c-14.8,1.5-29.4,0.8-41.9-8.3c-15.8-11.5-31-23.5-46.3-35.5c-5.9-4.6-11.3-9.7-16.9-14.7c7.2,0,13.7,1.7,20.2,2.6
		c19.5,3,38-10.5,40.6-29.6c2.1-15.9-5.5-30.3-19.5-35.4c-17-6.2-36.5-4-46.2,9c-4,5.4-5,14.1-1.9,19.1c3.3,5.5,10.8,9,17.6,6.6
		c3.5-1.1,7.3-5,8-8.3c0.6-2.8-2.9-6.6-5.1-9.7c-1-1.4-3.3-1.8-5.9-3.2c7.3-8.8,15.6-8.2,23.6-5.9c11.9,2.8,18.9,11.5,19.5,23.4
		c0.6,11.2-5.4,20.9-16.7,23.9c-7.1,1.9-15.2,2.1-22.4,0.6c-10.1-2.2-20.2-4.7-30.3-7l-92.3-235.5h-27L323,349
		c-11.4,2.1-22.7,5-33.9,7.9c-8.2,2.1-16.6,3.7-25,3.9c-12.2,0.3-22.4-8-24.5-18.1c-2.6-13.1,2.8-24.1,14.9-29.7
		c10.5-5,22.8-2.5,27.4,5.9c-1.2,0.6-2.4,1.2-3.6,1.7c-5.5,1.7-7.3,5.4-6.8,10.8c0.4,5.5,3.9,7.6,8.8,8.3c7.2,1.1,12.9-1.1,16.7-7.3
		c3-4.7,1.9-13.1-1.9-18.2c-9.8-12.9-23.6-14-37.7-11.9c-12.4,1.8-22.1,8.4-26.3,21.2c-4.4,13.5-2.8,26,7.7,36.5
		c8.7,8.7,19.8,10.8,31.5,9.4c6.2-0.7,12.2-2.3,19.5-3.9c-1.5,1.9-2.2,2.9-3.2,3.7c-15.1,13-30,26.1-45.5,38.7
		c-6.2,5-13.4,9.1-20.6,12.6c-14.5,6.9-29.7,8.4-44.7,1.4c-13.5-6.5-16.7-25.4-6.6-34.6c5.9-5.4,15.9-5.8,19.9-0.7
		c-5.7,7.3-5.4,14.1,0.8,17.4c6.5,3.5,15.6,1.5,20-4.3c4.1-5.4,3.5-14.5-1.7-19.8c-10.4-10.8-23.2-9.7-35.7-6.1
		c-18.5,5.4-25.7,25.3-16.3,42.2c1.5,2.8,3.2,5.5,5.3,9.3c-3.6,0.3-5.8,0.4-8,0.4c-8,0-16.2-0.1-24.2,0c-3.2,0-7.1-0.6-7.1,4.7
		C122.4,435.8,126.7,434.3,129.8,434.5z M349.3,415.7c-4.7,6.8-13.7,10.5-23.4,10.4l8-19.8c2.2-1.4,3.5-3.7,3.8-6.9
		c0.1-1.1,0.3-2.2,0.3-3.3l1.3-3.1c4.9-0.3,8.4,2.1,10.6,6.1C352.9,404.7,352.9,410.5,349.3,415.7z M411.9,414.4
		c-2.5,7.7-7.2,11.2-15.3,11.3c-2.6,0-5.4-0.1-8,0c-4.1,0.1-7.6-0.4-8.8-5.1c-1.2-4.6,0.1-6.8,5.7-9.8c0.6,0.4,1.1,0.8,1.7,1.1
		c2.6,1.2,5.7,4,8,3.5c2.2-0.4,5.4-4.7,5-6.6c-0.7-3.3-3.2-7.2-5.9-8.7c-5.5-2.9-11.3-1.2-16.3,2.6c-5.1,3.9-8.2,9-7.3,15.6
		c0.3,1.9,0.8,3.9,1.4,6.9c-6.5,0-12,0-18.2-0.1c1-1.7,1.5-2.8,2.2-3.7c7.7-9.8,7.6-21-0.3-30c-3.4-3.9-7.7-6.6-12.3-8l11.3-28.1
		c14.6-0.1,29,4.4,42.8,14.6C410.3,379.2,416.8,399.2,411.9,414.4z M416.6,424.9c1.8-3.5,3.5-6.2,5.7-10.4c2.1,4.3,3.5,6.9,5.3,10.4
		C423.8,424.9,420.9,424.9,416.6,424.9z M465.7,402.7c-4.6-2.2-10.4-2.8-15.3-2.2c-2.4,0.3-5.4,4.7-5.9,7.6
		c-0.4,2.1,2.5,6.9,4.3,7.1c3.3,0.4,6.9-1.7,10.4-2.8c0.1-0.6,0.3-1.1,0.4-1.7c4.4,1.5,6.6,5.3,4.7,9.3c-1.1,2.6-5,4-7.9,5.5
		c-1.2,0.6-3.2,0.1-4.7,0.1c-14.9,0-21.2-6.5-21.2-21.7c0-17.2,9.7-32.5,25-40.3l23.9,61.3c-2.2,0-4.3,0-6.5,0
		C474,416,474.9,407.2,465.7,402.7z M553.1,378.4c18.8,15.3,37.5,30.8,56.3,46.5c-15,0-30.1,0-46,0l-8.2-20.9
		C556.8,395.8,555.8,387.2,553.1,378.4z M452,354.8c-11.9,6-22.1,15.8-30.1,30.2c-1.2-2.1-2.2-4-3.6-5.7
		c-4.7-5.8-8.7-12.7-14.5-17.3c-13.4-10.3-28.7-15.7-45.4-16.4l45.8-113.6L452,354.8z M316.8,364.3L299.7,407
		c-0.5-1.7-0.8-3.5-0.9-5.3C297.7,385.7,301.5,371.4,316.8,364.3z M291.7,377.3c-2.7,14.7-4.9,28.7,3.4,41.4l-2.6,6.5
		c-20.2,0-39.3,0-58.2,0C253.2,409.4,272,393.8,291.7,377.3z"/>
	<path class="st0" d="M709.3,695.4c-26.5,0-44.2-11.1-52.8-33l-51.2-130.5c14.2-10.6,30-17.1,48.8-15.2c17,1.7,28.2,15.9,23.8,31.8
		c-1.8,6.5-6.6,9.5-12.6,10.8c-4.4,0.8-9.3,1.9-12.7-3c1.4-1.7,2.8-3.2,3.7-4.8c2.6-4.6,1-10.4-3.6-12.7c-6.1-3.2-13.7-2.1-18.7,2.8
		c-4.7,4.6-5.8,11.9-2.5,18c3.6,6.2,8.8,10.4,16,11.1c5.3,0.6,10.8,0.7,16,0c23.9-2.9,34.1-27.5,19.9-46.7c-1.2-1.8-2.5-3.6-4.8-6.9
		c4.1,0,6.6,0,9.1-0.3c10.9,0,22,0.3,32.9-0.1c1.9-0.1,5.1-2.1,5.4-3.7c0.8-4-2.5-4.3-5.7-4.3c-1.5,0.1-3.2,0-4.7,0c-26,0-52,0-78,0
		c-86.1,0-172.1,0.1-258.3,0.1c-82.5,0-164.9-0.1-247.5-0.1c-1.9,0-4.1-0.6-5.9,0.1c-1.9,0.7-3.3,2.5-5,3.9c1.8,1.5,3.5,4,5.3,4.1
		c9.4,0.4,18.8,0.3,28.2,0.3c2.1,0,4.1,0.3,7.1,0.6c-1.8,2.4-3,3.9-4.1,5.5c-13,18.2-4.8,42,16.5,46.7c6.8,1.5,14.2,1.4,21.3,0.4
		c10.6-1.5,17.6-11.6,16-21.4c-1-6.4-4.8-10.1-10.9-11.3c-5.8-1.2-11.3-0.1-14.9,5c-3.7,5.1-0.8,9.3,2.6,13.1
		c0.4,0.4,0.3,1.2,0.4,1.8c-9.8,5.9-23.1,0.3-25.4-10.6c-3-14.1,7.6-28.5,22.8-29.9c12.9-1.2,25.3,0.4,37.1,6.8
		c8.5,4.6,16.2,10.1,23.7,16.1l-33.4,83.3c-11.3,28.2-23.6,47.4-37.1,57.4c-13.4,10.1-31.7,15.1-54.7,15.1v30.3h216v-30h-20.2
		c-23.4,0-41.2-4.7-53.4-14.1c-12.2-9.4-18.4-20.7-18.4-33.9c0-3.1,0.3-6.5,0.8-10.2c13.2,6.4,31.5,5.7,42.3-3.4
		c3.3-2.8,6.4-6.5,8.2-10.4c2.8-5.9,1.7-11.9-3.3-16.6c-5-4.6-10.9-5.9-16.7-2.9c-2.9,1.5-5.4,5.4-6.1,8.6c-1,4,1.1,7.9,5.8,9.3
		c1.4,0.4,2.8,1.2,4.6,1.9c-1,1.4-1.4,2.3-2.1,3.2c-6.8,7.2-15.1,6.2-23.1,3.6c-2.8-0.9-5.3-2.1-7.5-3.6c1.8-7.5,4.5-16,8.1-25.5
		l7.7-20.3c2.1-0.1,4.3,0.1,6.4,0.4c8.6,1.4,17,4.1,25.4,6.1c23.4,5.4,46.6,12.4,70.9,8c22.3-4,41.2-13.7,51.7-35.3
		c0.6-1.2,1.1-2.4,2.2-5.1c10.5,24.6,29.2,34.6,51,39.1c19.5,4,39,0.6,58.1-3.3c4.4-0.9,8.7-1.9,13-3l6.7,17.2
		c-1.9,1.3-3.5,3.1-4.5,5.6c-2.6,6.2-1.5,12.4,2.6,17.7c3.7,4.8,9,8.2,15,10.3l6.4,16.4c1.9,5.1,2.8,10,2.8,14.5
		c0,7.7-3.5,13.5-10.5,17.3c-10.2,5.4-27.7,8-52.4,8h-18.9v30.3h237.8v-30.3H709.3z M387.2,529.1c-1.2,0.7-2.4,1.5-3.6,2.2
		c-2.1-0.1-3.7-0.9-4.6-2.2H387.2z M460.9,529.1c-0.7,1.5-1.6,3.2-2.4,5.1c-1.8-2.2-2.2-3.2-2.9-3.5c-1-0.4-2.1-1.1-3.1-1.7H460.9z
		 M492.9,529.1h26.9l3.5,9c-1.2-1.5-3-2.6-5.3-3.1c-6.2-1.5-11.1,1.2-12.7,7.5c-0.6,2.1-0.8,4.3-1.2,6.6c-5.5,1.5-9.7-1.5-10.9-5.5
		C491.8,539.2,491.3,533.4,492.9,529.1z M601.9,523.1l-2.2-5.6c3,0,6,0,9,0C606.4,519.3,604.2,521.2,601.9,523.1z M232.5,517.4
		c7.6,0,15.2,0,23,0l-5.8,14.4C244,526.9,238.2,522.1,232.5,517.4z M280.1,575.4c-4.3-0.6-8.6-1.5-12.9-2l4.7-12.3
		c2.5,2.2,5.1,4.4,7.6,6.5c3.3,2.8,6.5,5.7,9.7,8.6C285.6,576.8,282.8,575.8,280.1,575.4z M275,552.8l9-23.7h6.6
		c-4.7,11.1-3,23.3-0.6,36.4C285,561.2,280,557,275,552.8z M411.3,547.1c-3.6,20.2-18.1,30.1-35.5,36.5c-14.4,5.3-29.3,5.8-44,0.1
		c-2.2-1-4.7-1.7-7.1-1.9c-22.7-3-33-30.1-24.9-51.2c0.2-0.5,0.5-1,0.7-1.5h48.7c1.4,3.4,1.5,7,0.5,10.9c-1.7,5.9-5.8,9.3-12.4,10
		c-0.3-1.5-0.8-2.8-1.1-4c0-5.8-1.8-10.4-8-11.5c-5-0.8-9.5,0.3-11.9,5.4c-2.5,5.5-1.1,12.2,3.5,15.9c8.2,6.6,23.2,5.7,31.8-1.9
		c7.5-6.7,10-16.1,7.1-24.7h10.2c0.5,4.2,2.6,7.8,7,10.5c3.7,2.3,8.6,3.6,13,3.9c5,0.4,9.1-2.8,9.3-7.7c0.1-2-1-4.8-2.4-6.6H411
		C412.5,533.7,412.6,539.7,411.3,547.1z M512.9,584.1c-20.3,5.7-40,3.6-58.9-5.1c-17.6-8.2-28.3-30.3-23.8-48.1
		c0.2-0.6,0.4-1.2,0.6-1.8h14.7c-1.5,1.8-2.7,4.5-2.3,6.2c0.7,2.8,4,6.2,6.8,6.9c11.5,2.7,20.2-3.1,21.9-13.1h11.8
		c-0.8,2.8-1.5,5.5-1.8,8.3c-0.8,9.4,5.1,16.2,13,20.3c8.2,4.3,17,4,25.2-0.4c5-2.7,6.4-7.5,5.7-12.8l10.1,25.9
		C530.6,576.7,522.9,581.4,512.9,584.1z"/>
</g>
</svg>
